<svg width ="30px" height = "32px" aria-hidden="true" focusable="false" data-prefix="fas" data-icon="border-top-left" class="svg-inline--fa fa-border-top-left logo" role="img" xmlns="http://www.w3.org/2000/svg" viewBox="0 0 448 512">
  <path fill="#6a9eff" d="M0 448c0 17.7 14.3 32 32 32s32-14.3 32-32l0-336c0-8.8 7.2-16 16-16l336 0c17.7 0 32-14.3 32-32s-14.3-32-32-32L80 32C35.8 32 0 67.8 0 112L0 448zm160 0c0-17.7-14.3-32-32-32s-32 14.3-32 32s14.3 32 32 32s32-14.3 32-32zm192 0c0-17.7-14.3-32-32-32s-32 14.3-32 32s14.3 32 32 32s32-14.3 32-32zm-96 0c0-17.7-14.3-32-32-32s-32 14.3-32 32s14.3 32 32 32s32-14.3 32-32zm192 0c0-17.7-14.3-32-32-32s-32 14.3-32 32s14.3 32 32 32s32-14.3 32-32zM416 288c17.7 0 32-14.3 32-32s-14.3-32-32-32s-32 14.3-32 32s14.3 32 32 32zm0 32c-17.7 0-32 14.3-32 32s14.3 32 32 32s32-14.3 32-32s-14.3-32-32-32zm0-128c17.7 0 32-14.3 32-32s-14.3-32-32-32s-32 14.3-32 32s14.3 32 32 32z">
  </path>
</svg>